<svg width="392" height="135" viewBox="0 0 392 135" fill="none" xmlns="http://www.w3.org/2000/svg">
<g filter="url(#filter0_d_13_699)">
<path d="M120.138 59.0126H112.357L122.463 29.059H132.102L142.208 59.0126H134.427L127.392 36.6059H127.158L120.138 59.0126ZM119.099 47.2242H135.363V52.7235H119.099V47.2242ZM140.885 29.059H148.973L155.306 41.5933H155.569L161.902 29.059H169.99L159.035 49.0085V59.0126H151.839V49.0085L140.885 29.059ZM173.025 59.0126V29.059H180.264V41.7249H180.659L190.561 29.059H199.088L188.47 42.4269L199.278 59.0126H190.62L183.16 47.2388L180.264 50.8953V59.0126H173.025ZM208.423 59.0126H200.642L210.748 29.059H220.387L230.493 59.0126H222.712L215.677 36.6059H215.443L208.423 59.0126ZM207.384 47.2242H223.648V52.7235H207.384V47.2242ZM248.984 38.0392C248.886 36.9666 248.452 36.133 247.682 35.5382C246.921 34.9336 245.834 34.6314 244.42 34.6314C243.484 34.6314 242.704 34.7533 242.08 34.997C241.456 35.2408 240.988 35.5772 240.676 36.0062C240.364 36.4255 240.203 36.9081 240.194 37.4542C240.174 37.9027 240.262 38.2976 240.457 38.6388C240.662 38.9801 240.954 39.2824 241.334 39.5456C241.724 39.7992 242.192 40.0234 242.739 40.2184C243.285 40.4134 243.899 40.5841 244.581 40.7303L247.156 41.3154C248.638 41.6371 249.944 42.0662 251.075 42.6024C252.216 43.1387 253.172 43.7774 253.942 44.5184C254.722 45.2595 255.312 46.1126 255.712 47.0779C256.111 48.0432 256.316 49.1255 256.326 50.3249C256.316 52.2165 255.838 53.8399 254.893 55.1952C253.947 56.5506 252.587 57.589 250.812 58.3105C249.047 59.0321 246.917 59.3928 244.42 59.3928C241.915 59.3928 239.73 59.0174 237.868 58.2667C236.006 57.5159 234.558 56.3751 233.524 54.8442C232.491 53.3134 231.959 51.3779 231.93 49.0378H238.863C238.921 50.0031 239.18 50.8075 239.638 51.451C240.096 52.0946 240.725 52.5821 241.525 52.9136C242.334 53.2451 243.27 53.4109 244.333 53.4109C245.308 53.4109 246.137 53.2793 246.819 53.016C247.511 52.7527 248.043 52.3871 248.413 51.9191C248.784 51.451 248.974 50.9148 248.984 50.3102C248.974 49.7447 248.798 49.262 248.457 48.8623C248.116 48.4528 247.589 48.1017 246.878 47.8092C246.176 47.507 245.279 47.2291 244.186 46.9755L241.057 46.2443C238.463 45.6495 236.42 44.689 234.928 43.363C233.437 42.0272 232.695 40.2233 232.705 37.9514C232.695 36.0988 233.193 34.4754 234.197 33.081C235.201 31.6867 236.591 30.5995 238.365 29.8195C240.14 29.0395 242.163 28.6494 244.435 28.6494C246.756 28.6494 248.769 29.0443 250.476 29.8341C252.192 30.6142 253.523 31.7111 254.468 33.1249C255.414 34.5387 255.897 36.1768 255.916 38.0392H248.984ZM276.173 38.0392C276.076 36.9666 275.642 36.133 274.871 35.5382C274.111 34.9336 273.024 34.6314 271.61 34.6314C270.674 34.6314 269.894 34.7533 269.27 34.997C268.646 35.2408 268.178 35.5772 267.866 36.0062C267.554 36.4255 267.393 36.9081 267.383 37.4542C267.363 37.9027 267.451 38.2976 267.646 38.6388C267.851 38.9801 268.144 39.2824 268.524 39.5456C268.914 39.7992 269.382 40.0234 269.928 40.2184C270.474 40.4134 271.088 40.5841 271.771 40.7303L274.345 41.3154C275.827 41.6371 277.133 42.0662 278.265 42.6024C279.405 43.1387 280.361 43.7774 281.131 44.5184C281.911 45.2595 282.501 46.1126 282.901 47.0779C283.301 48.0432 283.505 49.1255 283.515 50.3249C283.505 52.2165 283.028 53.8399 282.082 55.1952C281.136 56.5506 279.776 57.589 278.001 58.3105C276.236 59.0321 274.106 59.3928 271.61 59.3928C269.104 59.3928 266.92 59.0174 265.057 58.2667C263.195 57.5159 261.747 56.3751 260.714 54.8442C259.68 53.3134 259.149 51.3779 259.119 49.0378H266.052C266.111 50.0031 266.369 50.8075 266.827 51.451C267.285 52.0946 267.914 52.5821 268.714 52.9136C269.523 53.2451 270.459 53.4109 271.522 53.4109C272.497 53.4109 273.326 53.2793 274.008 53.016C274.701 52.7527 275.232 52.3871 275.603 51.9191C275.973 51.451 276.163 50.9148 276.173 50.3102C276.163 49.7447 275.988 49.262 275.647 48.8623C275.305 48.4528 274.779 48.1017 274.067 47.8092C273.365 47.507 272.468 47.2291 271.376 46.9755L268.246 46.2443C265.652 45.6495 263.61 44.689 262.118 43.363C260.626 42.0272 259.885 40.2233 259.895 37.9514C259.885 36.0988 260.382 34.4754 261.386 33.081C262.391 31.6867 263.78 30.5995 265.555 29.8195C267.329 29.0395 269.353 28.6494 271.624 28.6494C273.945 28.6494 275.959 29.0443 277.665 29.8341C279.381 30.6142 280.712 31.7111 281.658 33.1249C282.604 34.5387 283.086 36.1768 283.106 38.0392H276.173ZM287.172 29.059H296.137L303.743 47.6045H304.094L311.699 29.059H320.665V59.0126H313.615V40.6133H313.366L306.171 58.8224H301.666L294.47 40.5109H294.221V59.0126H287.172V29.059ZM331.66 59.0126H323.879L333.985 29.059H343.624L353.73 59.0126H345.949L338.914 36.6059H338.68L331.66 59.0126ZM330.621 47.2242H346.885V52.7235H330.621V47.2242ZM360.977 59.4367C359.924 59.4367 359.022 59.0662 358.271 58.3252C357.53 57.5841 357.165 56.6871 357.174 55.634C357.165 54.6005 357.53 53.718 358.271 52.9867C359.022 52.2457 359.924 51.8752 360.977 51.8752C361.972 51.8752 362.849 52.2457 363.61 52.9867C364.38 53.718 364.77 54.6005 364.78 55.634C364.77 56.3361 364.585 56.9747 364.224 57.55C363.873 58.1253 363.41 58.5836 362.835 58.9248C362.269 59.2661 361.65 59.4367 360.977 59.4367ZM120.138 104.013H112.357L122.463 74.059H132.102L142.208 104.013H134.427L127.392 81.6059H127.158L120.138 104.013ZM119.099 92.2242H135.363V97.7235H119.099V92.2242ZM145.433 104.013V74.059H157.807C160.049 74.059 161.985 74.4636 163.613 75.2729C165.251 76.0724 166.514 77.223 167.401 78.7246C168.288 80.2164 168.732 81.9861 168.732 84.0337C168.732 86.1106 168.279 87.8755 167.372 89.3283C166.465 90.7714 165.178 91.8732 163.511 92.6337C161.843 93.3845 159.869 93.7599 157.587 93.7599H149.762V88.0558H156.242C157.334 88.0558 158.245 87.9145 158.977 87.6317C159.718 87.3392 160.278 86.9004 160.659 86.3154C161.039 85.7206 161.229 84.96 161.229 84.0337C161.229 83.1074 161.039 82.342 160.659 81.7375C160.278 81.1232 159.718 80.6649 158.977 80.3627C158.236 80.0507 157.324 79.8946 156.242 79.8946H152.673V104.013H145.433ZM162.297 90.3228L169.756 104.013H161.858L154.545 90.3228H162.297ZM171.723 79.9385V74.059H197.04V79.9385H187.958V104.013H180.82V79.9385H171.723ZM226.069 74.059V104.013H219.926L208.006 86.7249H207.816V104.013H200.576V74.059H206.807L218.595 91.3174H218.844V74.059H226.069ZM230.621 104.013V74.059H251.507V79.9385H237.861V86.0814H250.439V91.9755H237.861V98.133H251.507V104.013H230.621ZM256.041 104.013V74.059H268.414C270.657 74.059 272.592 74.4636 274.221 75.2729C275.859 76.0724 277.121 77.223 278.009 78.7246C278.896 80.2164 279.34 81.9861 279.34 84.0337C279.34 86.1106 278.886 87.8755 277.979 89.3283C277.073 90.7714 275.785 91.8732 274.118 92.6337C272.451 93.3845 270.476 93.7599 268.195 93.7599H260.37V88.0558H266.849C267.941 88.0558 268.853 87.9145 269.584 87.6317C270.325 87.3392 270.886 86.9004 271.266 86.3154C271.646 85.7206 271.837 84.96 271.837 84.0337C271.837 83.1074 271.646 82.342 271.266 81.7375C270.886 81.1232 270.325 80.6649 269.584 80.3627C268.843 80.0507 267.931 79.8946 266.849 79.8946H263.28V104.013H256.041ZM272.904 90.3228L280.363 104.013H272.465L265.153 90.3228H272.904ZM299.501 83.0392C299.404 81.9666 298.97 81.133 298.2 80.5382C297.439 79.9336 296.352 79.6314 294.938 79.6314C294.002 79.6314 293.222 79.7533 292.598 79.997C291.974 80.2408 291.506 80.5772 291.194 81.0062C290.882 81.4255 290.721 81.9081 290.711 82.4542C290.692 82.9027 290.779 83.2976 290.974 83.6388C291.179 83.9801 291.472 84.2824 291.852 84.5456C292.242 84.7992 292.71 85.0234 293.256 85.2184C293.802 85.4134 294.416 85.5841 295.099 85.7303L297.673 86.3154C299.155 86.6371 300.462 87.0662 301.593 87.6024C302.734 88.1387 303.689 88.7774 304.459 89.5184C305.239 90.2595 305.829 91.1126 306.229 92.0779C306.629 93.0432 306.834 94.1255 306.843 95.3249C306.834 97.2165 306.356 98.8399 305.41 100.195C304.464 101.551 303.104 102.589 301.329 103.311C299.565 104.032 297.434 104.393 294.938 104.393C292.432 104.393 290.248 104.017 288.386 103.267C286.523 102.516 285.075 101.375 284.042 99.8442C283.008 98.3134 282.477 96.3779 282.448 94.0378H289.38C289.439 95.0031 289.697 95.8075 290.155 96.451C290.614 97.0946 291.243 97.5821 292.042 97.9136C292.851 98.2451 293.787 98.4109 294.85 98.4109C295.825 98.4109 296.654 98.2793 297.337 98.016C298.029 97.7527 298.56 97.3871 298.931 96.9191C299.301 96.451 299.491 95.9148 299.501 95.3102C299.491 94.7447 299.316 94.262 298.975 93.8623C298.633 93.4528 298.107 93.1017 297.395 92.8092C296.693 92.507 295.796 92.2291 294.704 91.9755L291.574 91.2443C288.98 90.6495 286.938 89.689 285.446 88.363C283.954 87.0272 283.213 85.2233 283.223 82.9514C283.213 81.0988 283.71 79.4754 284.715 78.081C285.719 76.6867 287.108 75.5995 288.883 74.8195C290.657 74.0395 292.681 73.6494 294.953 73.6494C297.273 73.6494 299.287 74.0443 300.993 74.8341C302.709 75.6142 304.04 76.7111 304.986 78.1249C305.932 79.5387 306.414 81.1768 306.434 83.0392H299.501Z" fill="white"/>
<path d="M120.138 59.0126H112.357L122.463 29.059H132.102L142.208 59.0126H134.427L127.392 36.6059H127.158L120.138 59.0126ZM119.099 47.2242H135.363V52.7235H119.099V47.2242ZM140.885 29.059H148.973L155.306 41.5933H155.569L161.902 29.059H169.99L159.035 49.0085V59.0126H151.839V49.0085L140.885 29.059ZM173.025 59.0126V29.059H180.264V41.7249H180.659L190.561 29.059H199.088L188.47 42.4269L199.278 59.0126H190.62L183.16 47.2388L180.264 50.8953V59.0126H173.025ZM208.423 59.0126H200.642L210.748 29.059H220.387L230.493 59.0126H222.712L215.677 36.6059H215.443L208.423 59.0126ZM207.384 47.2242H223.648V52.7235H207.384V47.2242ZM248.984 38.0392C248.886 36.9666 248.452 36.133 247.682 35.5382C246.921 34.9336 245.834 34.6314 244.42 34.6314C243.484 34.6314 242.704 34.7533 242.08 34.997C241.456 35.2408 240.988 35.5772 240.676 36.0062C240.364 36.4255 240.203 36.9081 240.194 37.4542C240.174 37.9027 240.262 38.2976 240.457 38.6388C240.662 38.9801 240.954 39.2824 241.334 39.5456C241.724 39.7992 242.192 40.0234 242.739 40.2184C243.285 40.4134 243.899 40.5841 244.581 40.7303L247.156 41.3154C248.638 41.6371 249.944 42.0662 251.075 42.6024C252.216 43.1387 253.172 43.7774 253.942 44.5184C254.722 45.2595 255.312 46.1126 255.712 47.0779C256.111 48.0432 256.316 49.1255 256.326 50.3249C256.316 52.2165 255.838 53.8399 254.893 55.1952C253.947 56.5506 252.587 57.589 250.812 58.3105C249.047 59.0321 246.917 59.3928 244.42 59.3928C241.915 59.3928 239.73 59.0174 237.868 58.2667C236.006 57.5159 234.558 56.3751 233.524 54.8442C232.491 53.3134 231.959 51.3779 231.93 49.0378H238.863C238.921 50.0031 239.18 50.8075 239.638 51.451C240.096 52.0946 240.725 52.5821 241.525 52.9136C242.334 53.2451 243.27 53.4109 244.333 53.4109C245.308 53.4109 246.137 53.2793 246.819 53.016C247.511 52.7527 248.043 52.3871 248.413 51.9191C248.784 51.451 248.974 50.9148 248.984 50.3102C248.974 49.7447 248.798 49.262 248.457 48.8623C248.116 48.4528 247.589 48.1017 246.878 47.8092C246.176 47.507 245.279 47.2291 244.186 46.9755L241.057 46.2443C238.463 45.6495 236.42 44.689 234.928 43.363C233.437 42.0272 232.695 40.2233 232.705 37.9514C232.695 36.0988 233.193 34.4754 234.197 33.081C235.201 31.6867 236.591 30.5995 238.365 29.8195C240.14 29.0395 242.163 28.6494 244.435 28.6494C246.756 28.6494 248.769 29.0443 250.476 29.8341C252.192 30.6142 253.523 31.7111 254.468 33.1249C255.414 34.5387 255.897 36.1768 255.916 38.0392H248.984ZM276.173 38.0392C276.076 36.9666 275.642 36.133 274.871 35.5382C274.111 34.9336 273.024 34.6314 271.61 34.6314C270.674 34.6314 269.894 34.7533 269.27 34.997C268.646 35.2408 268.178 35.5772 267.866 36.0062C267.554 36.4255 267.393 36.9081 267.383 37.4542C267.363 37.9027 267.451 38.2976 267.646 38.6388C267.851 38.9801 268.144 39.2824 268.524 39.5456C268.914 39.7992 269.382 40.0234 269.928 40.2184C270.474 40.4134 271.088 40.5841 271.771 40.7303L274.345 41.3154C275.827 41.6371 277.133 42.0662 278.265 42.6024C279.405 43.1387 280.361 43.7774 281.131 44.5184C281.911 45.2595 282.501 46.1126 282.901 47.0779C283.301 48.0432 283.505 49.1255 283.515 50.3249C283.505 52.2165 283.028 53.8399 282.082 55.1952C281.136 56.5506 279.776 57.589 278.001 58.3105C276.236 59.0321 274.106 59.3928 271.61 59.3928C269.104 59.3928 266.92 59.0174 265.057 58.2667C263.195 57.5159 261.747 56.3751 260.714 54.8442C259.68 53.3134 259.149 51.3779 259.119 49.0378H266.052C266.111 50.0031 266.369 50.8075 266.827 51.451C267.285 52.0946 267.914 52.5821 268.714 52.9136C269.523 53.2451 270.459 53.4109 271.522 53.4109C272.497 53.4109 273.326 53.2793 274.008 53.016C274.701 52.7527 275.232 52.3871 275.603 51.9191C275.973 51.451 276.163 50.9148 276.173 50.3102C276.163 49.7447 275.988 49.262 275.647 48.8623C275.305 48.4528 274.779 48.1017 274.067 47.8092C273.365 47.507 272.468 47.2291 271.376 46.9755L268.246 46.2443C265.652 45.6495 263.61 44.689 262.118 43.363C260.626 42.0272 259.885 40.2233 259.895 37.9514C259.885 36.0988 260.382 34.4754 261.386 33.081C262.391 31.6867 263.78 30.5995 265.555 29.8195C267.329 29.0395 269.353 28.6494 271.624 28.6494C273.945 28.6494 275.959 29.0443 277.665 29.8341C279.381 30.6142 280.712 31.7111 281.658 33.1249C282.604 34.5387 283.086 36.1768 283.106 38.0392H276.173ZM287.172 29.059H296.137L303.743 47.6045H304.094L311.699 29.059H320.665V59.0126H313.615V40.6133H313.366L306.171 58.8224H301.666L294.47 40.5109H294.221V59.0126H287.172V29.059ZM331.66 59.0126H323.879L333.985 29.059H343.624L353.73 59.0126H345.949L338.914 36.6059H338.68L331.66 59.0126ZM330.621 47.2242H346.885V52.7235H330.621V47.2242ZM360.977 59.4367C359.924 59.4367 359.022 59.0662 358.271 58.3252C357.53 57.5841 357.165 56.6871 357.174 55.634C357.165 54.6005 357.53 53.718 358.271 52.9867C359.022 52.2457 359.924 51.8752 360.977 51.8752C361.972 51.8752 362.849 52.2457 363.61 52.9867C364.38 53.718 364.77 54.6005 364.78 55.634C364.77 56.3361 364.585 56.9747 364.224 57.55C363.873 58.1253 363.41 58.5836 362.835 58.9248C362.269 59.2661 361.65 59.4367 360.977 59.4367ZM120.138 104.013H112.357L122.463 74.059H132.102L142.208 104.013H134.427L127.392 81.6059H127.158L120.138 104.013ZM119.099 92.2242H135.363V97.7235H119.099V92.2242ZM145.433 104.013V74.059H157.807C160.049 74.059 161.985 74.4636 163.613 75.2729C165.251 76.0724 166.514 77.223 167.401 78.7246C168.288 80.2164 168.732 81.9861 168.732 84.0337C168.732 86.1106 168.279 87.8755 167.372 89.3283C166.465 90.7714 165.178 91.8732 163.511 92.6337C161.843 93.3845 159.869 93.7599 157.587 93.7599H149.762V88.0558H156.242C157.334 88.0558 158.245 87.9145 158.977 87.6317C159.718 87.3392 160.278 86.9004 160.659 86.3154C161.039 85.7206 161.229 84.96 161.229 84.0337C161.229 83.1074 161.039 82.342 160.659 81.7375C160.278 81.1232 159.718 80.6649 158.977 80.3627C158.236 80.0507 157.324 79.8946 156.242 79.8946H152.673V104.013H145.433ZM162.297 90.3228L169.756 104.013H161.858L154.545 90.3228H162.297ZM171.723 79.9385V74.059H197.04V79.9385H187.958V104.013H180.82V79.9385H171.723ZM226.069 74.059V104.013H219.926L208.006 86.7249H207.816V104.013H200.576V74.059H206.807L218.595 91.3174H218.844V74.059H226.069ZM230.621 104.013V74.059H251.507V79.9385H237.861V86.0814H250.439V91.9755H237.861V98.133H251.507V104.013H230.621ZM256.041 104.013V74.059H268.414C270.657 74.059 272.592 74.4636 274.221 75.2729C275.859 76.0724 277.121 77.223 278.009 78.7246C278.896 80.2164 279.34 81.9861 279.34 84.0337C279.34 86.1106 278.886 87.8755 277.979 89.3283C277.073 90.7714 275.785 91.8732 274.118 92.6337C272.451 93.3845 270.476 93.7599 268.195 93.7599H260.37V88.0558H266.849C267.941 88.0558 268.853 87.9145 269.584 87.6317C270.325 87.3392 270.886 86.9004 271.266 86.3154C271.646 85.7206 271.837 84.96 271.837 84.0337C271.837 83.1074 271.646 82.342 271.266 81.7375C270.886 81.1232 270.325 80.6649 269.584 80.3627C268.843 80.0507 267.931 79.8946 266.849 79.8946H263.28V104.013H256.041ZM272.904 90.3228L280.363 104.013H272.465L265.153 90.3228H272.904ZM299.501 83.0392C299.404 81.9666 298.97 81.133 298.2 80.5382C297.439 79.9336 296.352 79.6314 294.938 79.6314C294.002 79.6314 293.222 79.7533 292.598 79.997C291.974 80.2408 291.506 80.5772 291.194 81.0062C290.882 81.4255 290.721 81.9081 290.711 82.4542C290.692 82.9027 290.779 83.2976 290.974 83.6388C291.179 83.9801 291.472 84.2824 291.852 84.5456C292.242 84.7992 292.71 85.0234 293.256 85.2184C293.802 85.4134 294.416 85.5841 295.099 85.7303L297.673 86.3154C299.155 86.6371 300.462 87.0662 301.593 87.6024C302.734 88.1387 303.689 88.7774 304.459 89.5184C305.239 90.2595 305.829 91.1126 306.229 92.0779C306.629 93.0432 306.834 94.1255 306.843 95.3249C306.834 97.2165 306.356 98.8399 305.41 100.195C304.464 101.551 303.104 102.589 301.329 103.311C299.565 104.032 297.434 104.393 294.938 104.393C292.432 104.393 290.248 104.017 288.386 103.267C286.523 102.516 285.075 101.375 284.042 99.8442C283.008 98.3134 282.477 96.3779 282.448 94.0378H289.38C289.439 95.0031 289.697 95.8075 290.155 96.451C290.614 97.0946 291.243 97.5821 292.042 97.9136C292.851 98.2451 293.787 98.4109 294.85 98.4109C295.825 98.4109 296.654 98.2793 297.337 98.016C298.029 97.7527 298.56 97.3871 298.931 96.9191C299.301 96.451 299.491 95.9148 299.501 95.3102C299.491 94.7447 299.316 94.262 298.975 93.8623C298.633 93.4528 298.107 93.1017 297.395 92.8092C296.693 92.507 295.796 92.2291 294.704 91.9755L291.574 91.2443C288.98 90.6495 286.938 89.689 285.446 88.363C283.954 87.0272 283.213 85.2233 283.223 82.9514C283.213 81.0988 283.71 79.4754 284.715 78.081C285.719 76.6867 287.108 75.5995 288.883 74.8195C290.657 74.0395 292.681 73.6494 294.953 73.6494C297.273 73.6494 299.287 74.0443 300.993 74.8341C302.709 75.6142 304.04 76.7111 304.986 78.1249C305.932 79.5387 306.414 81.1768 306.434 83.0392H299.501Z" fill="url(#paint0_radial_13_699)" fill-opacity="0.2"/>
<path d="M120.138 59.0126H112.357L122.463 29.059H132.102L142.208 59.0126H134.427L127.392 36.6059H127.158L120.138 59.0126ZM119.099 47.2242H135.363V52.7235H119.099V47.2242ZM140.885 29.059H148.973L155.306 41.5933H155.569L161.902 29.059H169.99L159.035 49.0085V59.0126H151.839V49.0085L140.885 29.059ZM173.025 59.0126V29.059H180.264V41.7249H180.659L190.561 29.059H199.088L188.47 42.4269L199.278 59.0126H190.62L183.16 47.2388L180.264 50.8953V59.0126H173.025ZM208.423 59.0126H200.642L210.748 29.059H220.387L230.493 59.0126H222.712L215.677 36.6059H215.443L208.423 59.0126ZM207.384 47.2242H223.648V52.7235H207.384V47.2242ZM248.984 38.0392C248.886 36.9666 248.452 36.133 247.682 35.5382C246.921 34.9336 245.834 34.6314 244.42 34.6314C243.484 34.6314 242.704 34.7533 242.08 34.997C241.456 35.2408 240.988 35.5772 240.676 36.0062C240.364 36.4255 240.203 36.9081 240.194 37.4542C240.174 37.9027 240.262 38.2976 240.457 38.6388C240.662 38.9801 240.954 39.2824 241.334 39.5456C241.724 39.7992 242.192 40.0234 242.739 40.2184C243.285 40.4134 243.899 40.5841 244.581 40.7303L247.156 41.3154C248.638 41.6371 249.944 42.0662 251.075 42.6024C252.216 43.1387 253.172 43.7774 253.942 44.5184C254.722 45.2595 255.312 46.1126 255.712 47.0779C256.111 48.0432 256.316 49.1255 256.326 50.3249C256.316 52.2165 255.838 53.8399 254.893 55.1952C253.947 56.5506 252.587 57.589 250.812 58.3105C249.047 59.0321 246.917 59.3928 244.42 59.3928C241.915 59.3928 239.73 59.0174 237.868 58.2667C236.006 57.5159 234.558 56.3751 233.524 54.8442C232.491 53.3134 231.959 51.3779 231.93 49.0378H238.863C238.921 50.0031 239.18 50.8075 239.638 51.451C240.096 52.0946 240.725 52.5821 241.525 52.9136C242.334 53.2451 243.27 53.4109 244.333 53.4109C245.308 53.4109 246.137 53.2793 246.819 53.016C247.511 52.7527 248.043 52.3871 248.413 51.9191C248.784 51.451 248.974 50.9148 248.984 50.3102C248.974 49.7447 248.798 49.262 248.457 48.8623C248.116 48.4528 247.589 48.1017 246.878 47.8092C246.176 47.507 245.279 47.2291 244.186 46.9755L241.057 46.2443C238.463 45.6495 236.42 44.689 234.928 43.363C233.437 42.0272 232.695 40.2233 232.705 37.9514C232.695 36.0988 233.193 34.4754 234.197 33.081C235.201 31.6867 236.591 30.5995 238.365 29.8195C240.14 29.0395 242.163 28.6494 244.435 28.6494C246.756 28.6494 248.769 29.0443 250.476 29.8341C252.192 30.6142 253.523 31.7111 254.468 33.1249C255.414 34.5387 255.897 36.1768 255.916 38.0392H248.984ZM276.173 38.0392C276.076 36.9666 275.642 36.133 274.871 35.5382C274.111 34.9336 273.024 34.6314 271.61 34.6314C270.674 34.6314 269.894 34.7533 269.27 34.997C268.646 35.2408 268.178 35.5772 267.866 36.0062C267.554 36.4255 267.393 36.9081 267.383 37.4542C267.363 37.9027 267.451 38.2976 267.646 38.6388C267.851 38.9801 268.144 39.2824 268.524 39.5456C268.914 39.7992 269.382 40.0234 269.928 40.2184C270.474 40.4134 271.088 40.5841 271.771 40.7303L274.345 41.3154C275.827 41.6371 277.133 42.0662 278.265 42.6024C279.405 43.1387 280.361 43.7774 281.131 44.5184C281.911 45.2595 282.501 46.1126 282.901 47.0779C283.301 48.0432 283.505 49.1255 283.515 50.3249C283.505 52.2165 283.028 53.8399 282.082 55.1952C281.136 56.5506 279.776 57.589 278.001 58.3105C276.236 59.0321 274.106 59.3928 271.61 59.3928C269.104 59.3928 266.92 59.0174 265.057 58.2667C263.195 57.5159 261.747 56.3751 260.714 54.8442C259.68 53.3134 259.149 51.3779 259.119 49.0378H266.052C266.111 50.0031 266.369 50.8075 266.827 51.451C267.285 52.0946 267.914 52.5821 268.714 52.9136C269.523 53.2451 270.459 53.4109 271.522 53.4109C272.497 53.4109 273.326 53.2793 274.008 53.016C274.701 52.7527 275.232 52.3871 275.603 51.9191C275.973 51.451 276.163 50.9148 276.173 50.3102C276.163 49.7447 275.988 49.262 275.647 48.8623C275.305 48.4528 274.779 48.1017 274.067 47.8092C273.365 47.507 272.468 47.2291 271.376 46.9755L268.246 46.2443C265.652 45.6495 263.61 44.689 262.118 43.363C260.626 42.0272 259.885 40.2233 259.895 37.9514C259.885 36.0988 260.382 34.4754 261.386 33.081C262.391 31.6867 263.78 30.5995 265.555 29.8195C267.329 29.0395 269.353 28.6494 271.624 28.6494C273.945 28.6494 275.959 29.0443 277.665 29.8341C279.381 30.6142 280.712 31.7111 281.658 33.1249C282.604 34.5387 283.086 36.1768 283.106 38.0392H276.173ZM287.172 29.059H296.137L303.743 47.6045H304.094L311.699 29.059H320.665V59.0126H313.615V40.6133H313.366L306.171 58.8224H301.666L294.47 40.5109H294.221V59.0126H287.172V29.059ZM331.66 59.0126H323.879L333.985 29.059H343.624L353.73 59.0126H345.949L338.914 36.6059H338.68L331.66 59.0126ZM330.621 47.2242H346.885V52.7235H330.621V47.2242ZM360.977 59.4367C359.924 59.4367 359.022 59.0662 358.271 58.3252C357.53 57.5841 357.165 56.6871 357.174 55.634C357.165 54.6005 357.53 53.718 358.271 52.9867C359.022 52.2457 359.924 51.8752 360.977 51.8752C361.972 51.8752 362.849 52.2457 363.61 52.9867C364.38 53.718 364.77 54.6005 364.78 55.634C364.77 56.3361 364.585 56.9747 364.224 57.55C363.873 58.1253 363.41 58.5836 362.835 58.9248C362.269 59.2661 361.65 59.4367 360.977 59.4367ZM120.138 104.013H112.357L122.463 74.059H132.102L142.208 104.013H134.427L127.392 81.6059H127.158L120.138 104.013ZM119.099 92.2242H135.363V97.7235H119.099V92.2242ZM145.433 104.013V74.059H157.807C160.049 74.059 161.985 74.4636 163.613 75.2729C165.251 76.0724 166.514 77.223 167.401 78.7246C168.288 80.2164 168.732 81.9861 168.732 84.0337C168.732 86.1106 168.279 87.8755 167.372 89.3283C166.465 90.7714 165.178 91.8732 163.511 92.6337C161.843 93.3845 159.869 93.7599 157.587 93.7599H149.762V88.0558H156.242C157.334 88.0558 158.245 87.9145 158.977 87.6317C159.718 87.3392 160.278 86.9004 160.659 86.3154C161.039 85.7206 161.229 84.96 161.229 84.0337C161.229 83.1074 161.039 82.342 160.659 81.7375C160.278 81.1232 159.718 80.6649 158.977 80.3627C158.236 80.0507 157.324 79.8946 156.242 79.8946H152.673V104.013H145.433ZM162.297 90.3228L169.756 104.013H161.858L154.545 90.3228H162.297ZM171.723 79.9385V74.059H197.04V79.9385H187.958V104.013H180.82V79.9385H171.723ZM226.069 74.059V104.013H219.926L208.006 86.7249H207.816V104.013H200.576V74.059H206.807L218.595 91.3174H218.844V74.059H226.069ZM230.621 104.013V74.059H251.507V79.9385H237.861V86.0814H250.439V91.9755H237.861V98.133H251.507V104.013H230.621ZM256.041 104.013V74.059H268.414C270.657 74.059 272.592 74.4636 274.221 75.2729C275.859 76.0724 277.121 77.223 278.009 78.7246C278.896 80.2164 279.34 81.9861 279.34 84.0337C279.34 86.1106 278.886 87.8755 277.979 89.3283C277.073 90.7714 275.785 91.8732 274.118 92.6337C272.451 93.3845 270.476 93.7599 268.195 93.7599H260.37V88.0558H266.849C267.941 88.0558 268.853 87.9145 269.584 87.6317C270.325 87.3392 270.886 86.9004 271.266 86.3154C271.646 85.7206 271.837 84.96 271.837 84.0337C271.837 83.1074 271.646 82.342 271.266 81.7375C270.886 81.1232 270.325 80.6649 269.584 80.3627C268.843 80.0507 267.931 79.8946 266.849 79.8946H263.28V104.013H256.041ZM272.904 90.3228L280.363 104.013H272.465L265.153 90.3228H272.904ZM299.501 83.0392C299.404 81.9666 298.97 81.133 298.2 80.5382C297.439 79.9336 296.352 79.6314 294.938 79.6314C294.002 79.6314 293.222 79.7533 292.598 79.997C291.974 80.2408 291.506 80.5772 291.194 81.0062C290.882 81.4255 290.721 81.9081 290.711 82.4542C290.692 82.9027 290.779 83.2976 290.974 83.6388C291.179 83.9801 291.472 84.2824 291.852 84.5456C292.242 84.7992 292.71 85.0234 293.256 85.2184C293.802 85.4134 294.416 85.5841 295.099 85.7303L297.673 86.3154C299.155 86.6371 300.462 87.0662 301.593 87.6024C302.734 88.1387 303.689 88.7774 304.459 89.5184C305.239 90.2595 305.829 91.1126 306.229 92.0779C306.629 93.0432 306.834 94.1255 306.843 95.3249C306.834 97.2165 306.356 98.8399 305.41 100.195C304.464 101.551 303.104 102.589 301.329 103.311C299.565 104.032 297.434 104.393 294.938 104.393C292.432 104.393 290.248 104.017 288.386 103.267C286.523 102.516 285.075 101.375 284.042 99.8442C283.008 98.3134 282.477 96.3779 282.448 94.0378H289.38C289.439 95.0031 289.697 95.8075 290.155 96.451C290.614 97.0946 291.243 97.5821 292.042 97.9136C292.851 98.2451 293.787 98.4109 294.85 98.4109C295.825 98.4109 296.654 98.2793 297.337 98.016C298.029 97.7527 298.56 97.3871 298.931 96.9191C299.301 96.451 299.491 95.9148 299.501 95.3102C299.491 94.7447 299.316 94.262 298.975 93.8623C298.633 93.4528 298.107 93.1017 297.395 92.8092C296.693 92.507 295.796 92.2291 294.704 91.9755L291.574 91.2443C288.98 90.6495 286.938 89.689 285.446 88.363C283.954 87.0272 283.213 85.2233 283.223 82.9514C283.213 81.0988 283.71 79.4754 284.715 78.081C285.719 76.6867 287.108 75.5995 288.883 74.8195C290.657 74.0395 292.681 73.6494 294.953 73.6494C297.273 73.6494 299.287 74.0443 300.993 74.8341C302.709 75.6142 304.04 76.7111 304.986 78.1249C305.932 79.5387 306.414 81.1768 306.434 83.0392H299.501Z" fill="url(#paint1_radial_13_699)" fill-opacity="0.2"/>
<path d="M120.138 59.0126H112.357L122.463 29.059H132.102L142.208 59.0126H134.427L127.392 36.6059H127.158L120.138 59.0126ZM119.099 47.2242H135.363V52.7235H119.099V47.2242ZM140.885 29.059H148.973L155.306 41.5933H155.569L161.902 29.059H169.99L159.035 49.0085V59.0126H151.839V49.0085L140.885 29.059ZM173.025 59.0126V29.059H180.264V41.7249H180.659L190.561 29.059H199.088L188.47 42.4269L199.278 59.0126H190.62L183.16 47.2388L180.264 50.8953V59.0126H173.025ZM208.423 59.0126H200.642L210.748 29.059H220.387L230.493 59.0126H222.712L215.677 36.6059H215.443L208.423 59.0126ZM207.384 47.2242H223.648V52.7235H207.384V47.2242ZM248.984 38.0392C248.886 36.9666 248.452 36.133 247.682 35.5382C246.921 34.9336 245.834 34.6314 244.42 34.6314C243.484 34.6314 242.704 34.7533 242.08 34.997C241.456 35.2408 240.988 35.5772 240.676 36.0062C240.364 36.4255 240.203 36.9081 240.194 37.4542C240.174 37.9027 240.262 38.2976 240.457 38.6388C240.662 38.9801 240.954 39.2824 241.334 39.5456C241.724 39.7992 242.192 40.0234 242.739 40.2184C243.285 40.4134 243.899 40.5841 244.581 40.7303L247.156 41.3154C248.638 41.6371 249.944 42.0662 251.075 42.6024C252.216 43.1387 253.172 43.7774 253.942 44.5184C254.722 45.2595 255.312 46.1126 255.712 47.0779C256.111 48.0432 256.316 49.1255 256.326 50.3249C256.316 52.2165 255.838 53.8399 254.893 55.1952C253.947 56.5506 252.587 57.589 250.812 58.3105C249.047 59.0321 246.917 59.3928 244.42 59.3928C241.915 59.3928 239.73 59.0174 237.868 58.2667C236.006 57.5159 234.558 56.3751 233.524 54.8442C232.491 53.3134 231.959 51.3779 231.93 49.0378H238.863C238.921 50.0031 239.18 50.8075 239.638 51.451C240.096 52.0946 240.725 52.5821 241.525 52.9136C242.334 53.2451 243.27 53.4109 244.333 53.4109C245.308 53.4109 246.137 53.2793 246.819 53.016C247.511 52.7527 248.043 52.3871 248.413 51.9191C248.784 51.451 248.974 50.9148 248.984 50.3102C248.974 49.7447 248.798 49.262 248.457 48.8623C248.116 48.4528 247.589 48.1017 246.878 47.8092C246.176 47.507 245.279 47.2291 244.186 46.9755L241.057 46.2443C238.463 45.6495 236.42 44.689 234.928 43.363C233.437 42.0272 232.695 40.2233 232.705 37.9514C232.695 36.0988 233.193 34.4754 234.197 33.081C235.201 31.6867 236.591 30.5995 238.365 29.8195C240.14 29.0395 242.163 28.6494 244.435 28.6494C246.756 28.6494 248.769 29.0443 250.476 29.8341C252.192 30.6142 253.523 31.7111 254.468 33.1249C255.414 34.5387 255.897 36.1768 255.916 38.0392H248.984ZM276.173 38.0392C276.076 36.9666 275.642 36.133 274.871 35.5382C274.111 34.9336 273.024 34.6314 271.61 34.6314C270.674 34.6314 269.894 34.7533 269.27 34.997C268.646 35.2408 268.178 35.5772 267.866 36.0062C267.554 36.4255 267.393 36.9081 267.383 37.4542C267.363 37.9027 267.451 38.2976 267.646 38.6388C267.851 38.9801 268.144 39.2824 268.524 39.5456C268.914 39.7992 269.382 40.0234 269.928 40.2184C270.474 40.4134 271.088 40.5841 271.771 40.7303L274.345 41.3154C275.827 41.6371 277.133 42.0662 278.265 42.6024C279.405 43.1387 280.361 43.7774 281.131 44.5184C281.911 45.2595 282.501 46.1126 282.901 47.0779C283.301 48.0432 283.505 49.1255 283.515 50.3249C283.505 52.2165 283.028 53.8399 282.082 55.1952C281.136 56.5506 279.776 57.589 278.001 58.3105C276.236 59.0321 274.106 59.3928 271.61 59.3928C269.104 59.3928 266.92 59.0174 265.057 58.2667C263.195 57.5159 261.747 56.3751 260.714 54.8442C259.68 53.3134 259.149 51.3779 259.119 49.0378H266.052C266.111 50.0031 266.369 50.8075 266.827 51.451C267.285 52.0946 267.914 52.5821 268.714 52.9136C269.523 53.2451 270.459 53.4109 271.522 53.4109C272.497 53.4109 273.326 53.2793 274.008 53.016C274.701 52.7527 275.232 52.3871 275.603 51.9191C275.973 51.451 276.163 50.9148 276.173 50.3102C276.163 49.7447 275.988 49.262 275.647 48.8623C275.305 48.4528 274.779 48.1017 274.067 47.8092C273.365 47.507 272.468 47.2291 271.376 46.9755L268.246 46.2443C265.652 45.6495 263.61 44.689 262.118 43.363C260.626 42.0272 259.885 40.2233 259.895 37.9514C259.885 36.0988 260.382 34.4754 261.386 33.081C262.391 31.6867 263.78 30.5995 265.555 29.8195C267.329 29.0395 269.353 28.6494 271.624 28.6494C273.945 28.6494 275.959 29.0443 277.665 29.8341C279.381 30.6142 280.712 31.7111 281.658 33.1249C282.604 34.5387 283.086 36.1768 283.106 38.0392H276.173ZM287.172 29.059H296.137L303.743 47.6045H304.094L311.699 29.059H320.665V59.0126H313.615V40.6133H313.366L306.171 58.8224H301.666L294.47 40.5109H294.221V59.0126H287.172V29.059ZM331.66 59.0126H323.879L333.985 29.059H343.624L353.73 59.0126H345.949L338.914 36.6059H338.68L331.66 59.0126ZM330.621 47.2242H346.885V52.7235H330.621V47.2242ZM360.977 59.4367C359.924 59.4367 359.022 59.0662 358.271 58.3252C357.53 57.5841 357.165 56.6871 357.174 55.634C357.165 54.6005 357.53 53.718 358.271 52.9867C359.022 52.2457 359.924 51.8752 360.977 51.8752C361.972 51.8752 362.849 52.2457 363.61 52.9867C364.38 53.718 364.77 54.6005 364.78 55.634C364.77 56.3361 364.585 56.9747 364.224 57.55C363.873 58.1253 363.41 58.5836 362.835 58.9248C362.269 59.2661 361.65 59.4367 360.977 59.4367ZM120.138 104.013H112.357L122.463 74.059H132.102L142.208 104.013H134.427L127.392 81.6059H127.158L120.138 104.013ZM119.099 92.2242H135.363V97.7235H119.099V92.2242ZM145.433 104.013V74.059H157.807C160.049 74.059 161.985 74.4636 163.613 75.2729C165.251 76.0724 166.514 77.223 167.401 78.7246C168.288 80.2164 168.732 81.9861 168.732 84.0337C168.732 86.1106 168.279 87.8755 167.372 89.3283C166.465 90.7714 165.178 91.8732 163.511 92.6337C161.843 93.3845 159.869 93.7599 157.587 93.7599H149.762V88.0558H156.242C157.334 88.0558 158.245 87.9145 158.977 87.6317C159.718 87.3392 160.278 86.9004 160.659 86.3154C161.039 85.7206 161.229 84.96 161.229 84.0337C161.229 83.1074 161.039 82.342 160.659 81.7375C160.278 81.1232 159.718 80.6649 158.977 80.3627C158.236 80.0507 157.324 79.8946 156.242 79.8946H152.673V104.013H145.433ZM162.297 90.3228L169.756 104.013H161.858L154.545 90.3228H162.297ZM171.723 79.9385V74.059H197.04V79.9385H187.958V104.013H180.82V79.9385H171.723ZM226.069 74.059V104.013H219.926L208.006 86.7249H207.816V104.013H200.576V74.059H206.807L218.595 91.3174H218.844V74.059H226.069ZM230.621 104.013V74.059H251.507V79.9385H237.861V86.0814H250.439V91.9755H237.861V98.133H251.507V104.013H230.621ZM256.041 104.013V74.059H268.414C270.657 74.059 272.592 74.4636 274.221 75.2729C275.859 76.0724 277.121 77.223 278.009 78.7246C278.896 80.2164 279.34 81.9861 279.34 84.0337C279.34 86.1106 278.886 87.8755 277.979 89.3283C277.073 90.7714 275.785 91.8732 274.118 92.6337C272.451 93.3845 270.476 93.7599 268.195 93.7599H260.37V88.0558H266.849C267.941 88.0558 268.853 87.9145 269.584 87.6317C270.325 87.3392 270.886 86.9004 271.266 86.3154C271.646 85.7206 271.837 84.96 271.837 84.0337C271.837 83.1074 271.646 82.342 271.266 81.7375C270.886 81.1232 270.325 80.6649 269.584 80.3627C268.843 80.0507 267.931 79.8946 266.849 79.8946H263.28V104.013H256.041ZM272.904 90.3228L280.363 104.013H272.465L265.153 90.3228H272.904ZM299.501 83.0392C299.404 81.9666 298.97 81.133 298.2 80.5382C297.439 79.9336 296.352 79.6314 294.938 79.6314C294.002 79.6314 293.222 79.7533 292.598 79.997C291.974 80.2408 291.506 80.5772 291.194 81.0062C290.882 81.4255 290.721 81.9081 290.711 82.4542C290.692 82.9027 290.779 83.2976 290.974 83.6388C291.179 83.9801 291.472 84.2824 291.852 84.5456C292.242 84.7992 292.71 85.0234 293.256 85.2184C293.802 85.4134 294.416 85.5841 295.099 85.7303L297.673 86.3154C299.155 86.6371 300.462 87.0662 301.593 87.6024C302.734 88.1387 303.689 88.7774 304.459 89.5184C305.239 90.2595 305.829 91.1126 306.229 92.0779C306.629 93.0432 306.834 94.1255 306.843 95.3249C306.834 97.2165 306.356 98.8399 305.41 100.195C304.464 101.551 303.104 102.589 301.329 103.311C299.565 104.032 297.434 104.393 294.938 104.393C292.432 104.393 290.248 104.017 288.386 103.267C286.523 102.516 285.075 101.375 284.042 99.8442C283.008 98.3134 282.477 96.3779 282.448 94.0378H289.38C289.439 95.0031 289.697 95.8075 290.155 96.451C290.614 97.0946 291.243 97.5821 292.042 97.9136C292.851 98.2451 293.787 98.4109 294.85 98.4109C295.825 98.4109 296.654 98.2793 297.337 98.016C298.029 97.7527 298.56 97.3871 298.931 96.9191C299.301 96.451 299.491 95.9148 299.501 95.3102C299.491 94.7447 299.316 94.262 298.975 93.8623C298.633 93.4528 298.107 93.1017 297.395 92.8092C296.693 92.507 295.796 92.2291 294.704 91.9755L291.574 91.2443C288.98 90.6495 286.938 89.689 285.446 88.363C283.954 87.0272 283.213 85.2233 283.223 82.9514C283.213 81.0988 283.71 79.4754 284.715 78.081C285.719 76.6867 287.108 75.5995 288.883 74.8195C290.657 74.0395 292.681 73.6494 294.953 73.6494C297.273 73.6494 299.287 74.0443 300.993 74.8341C302.709 75.6142 304.04 76.7111 304.986 78.1249C305.932 79.5387 306.414 81.1768 306.434 83.0392H299.501Z" fill="url(#paint2_radial_13_699)" fill-opacity="0.2"/>
</g>
<path d="M29.6206 18.8745C29.9031 14.9088 30.0443 12.9259 30.8578 11.3899C31.7308 9.74128 33.1388 8.43698 34.8493 7.69235C36.443 6.99857 38.4423 7.00921 42.4409 7.03048L50.4871 7.07329C51.8039 7.0803 52.8676 8.14969 52.8676 9.46643L49.5149 65.4246C49.3316 68.4853 49.2399 70.0157 49.641 71.2387C50.2662 73.1448 51.7067 74.6742 53.572 75.4123C54.7688 75.8858 56.3019 75.8858 59.3681 75.8858C62.4796 75.8858 64.0354 75.8858 65.2426 76.3688C67.1245 77.1216 68.5685 78.6801 69.1759 80.6138C69.5656 81.8543 69.4472 83.4055 69.2103 86.508L69.1714 87.0179C68.8787 90.8518 68.7323 92.7688 67.9667 94.253C67.0725 95.9864 65.5922 97.3463 63.7893 98.0906C62.2457 98.7278 60.3232 98.7114 56.4782 98.6785L24.1318 98.4019C24.4425 91.827 27.9651 42.1145 29.6206 18.8745Z" fill="url(#paint3_linear_13_699)" fill-opacity="0.5"/>
<path d="M54.4162 22.5207C54.9449 15.2898 55.2093 11.6744 57.5803 9.47037C59.9513 7.26637 63.5822 7.26637 70.8441 7.26637L99.804 7.26636L96.0648 58.5418C95.5365 65.7866 95.2723 69.409 92.9012 71.6136C90.53 73.8181 86.898 73.8181 79.6339 73.8181H50.6958C50.9778 69.6052 53.0776 40.8287 54.4162 22.5207Z" fill="url(#paint4_linear_13_699)" fill-opacity="0.5"/>
<path d="M81.6157 0.828491H36.9595C29.9893 0.828491 24.1481 6.20589 23.6622 13.0714L17.1558 104.934H61.8121C68.7823 104.934 74.6234 99.5566 75.1093 92.6915L75.9927 80.2003H88.6136C95.5838 80.2003 101.425 74.8229 101.911 67.9574L106.667 0.828491H81.6157ZM74.1132 7.93603L69.5 73.3211H51.4299L55.6617 13.5511C55.7416 11.3677 57.8059 7.93603 61.9207 7.93603H74.1132ZM68.1612 92.2118C67.9293 95.4907 65.1413 98.0573 61.8121 98.0573H24.6256L30.7329 13.5915C30.9664 10.8224 32.8467 7.93603 36.9215 7.93603H50.2829C49.3886 9.54947 48.8517 11.1336 48.7136 13.0714L43.96 80.2003H69.0115L68.1612 92.2118ZM94.9655 67.4777C94.7336 70.7564 91.9456 73.3239 88.6164 73.3239H76.4813L81.1299 7.70491H99.2001L94.9655 67.4777Z" fill="url(#paint5_linear_13_699)"/>
<defs>
<filter id="filter0_d_13_699" x="85.638" y="5.07385" width="305.861" height="129.181" filterUnits="userSpaceOnUse" color-interpolation-filters="sRGB">
<feFlood flood-opacity="0" result="BackgroundImageFix"/>
<feColorMatrix in="SourceAlpha" type="matrix" values="0 0 0 0 0 0 0 0 0 0 0 0 0 0 0 0 0 0 127 0" result="hardAlpha"/>
<feOffset dy="3.14341"/>
<feGaussianBlur stdDeviation="13.3595"/>
<feComposite in2="hardAlpha" operator="out"/>
<feColorMatrix type="matrix" values="0 0 0 0 0.996078 0 0 0 0 0.81098 0 0 0 0 0.301961 0 0 0 0.4 0"/>
<feBlend mode="normal" in2="BackgroundImageFix" result="effect1_dropShadow_13_699"/>
<feBlend mode="normal" in="SourceGraphic" in2="effect1_dropShadow_13_699" result="shape"/>
</filter>
<radialGradient id="paint0_radial_13_699" cx="0" cy="0" r="1" gradientUnits="userSpaceOnUse" gradientTransform="translate(229.765 7.65912) rotate(90.3845) scale(49.2683 140.826)">
<stop offset="0.292636"/>
<stop offset="0.564686" stop-opacity="0"/>
</radialGradient>
<radialGradient id="paint1_radial_13_699" cx="0" cy="0" r="1" gradientUnits="userSpaceOnUse" gradientTransform="translate(163.304 97.2712) rotate(-95.9887) scale(50.7078 145.532)">
<stop offset="0.204965"/>
<stop offset="0.56779" stop-opacity="0"/>
</radialGradient>
<radialGradient id="paint2_radial_13_699" cx="0" cy="0" r="1" gradientUnits="userSpaceOnUse" gradientTransform="translate(341.856 93.3919) rotate(-112.39) scale(25.1737 75.8844)">
<stop/>
<stop offset="1" stop-opacity="0"/>
</radialGradient>
<linearGradient id="paint3_linear_13_699" x1="25.9905" y1="98.4771" x2="77.6885" y2="7.25826" gradientUnits="userSpaceOnUse">
<stop stop-color="#4B4B4B"/>
<stop offset="0.337101" stop-color="#2A282B"/>
<stop offset="1" stop-color="#060606"/>
</linearGradient>
<linearGradient id="paint4_linear_13_699" x1="52.6849" y1="73.599" x2="81.9137" y2="-2.54004" gradientUnits="userSpaceOnUse">
<stop stop-color="#4B4B4B"/>
<stop offset="0.337101" stop-color="#2A282B"/>
<stop offset="1" stop-color="#060606"/>
</linearGradient>
<linearGradient id="paint5_linear_13_699" x1="17.1558" y1="52.8813" x2="106.667" y2="52.8813" gradientUnits="userSpaceOnUse">
<stop stop-color="#FFD01F"/>
<stop offset="0.302885" stop-color="#FFFD64"/>
<stop offset="1" stop-color="#FFC61D"/>
</linearGradient>
</defs>
</svg>
