<svg
          viewBox="0 0 169 46"
          fill="none"
          xmlns="http://www.w3.org/2000/svg">
          <path
            d="M15 0.75H154C161.87 0.75 168.25 7.12994 168.25 15V31C168.25 38.8701 161.87 45.25 154 45.25H15C7.12994 45.25 0.75 38.8701 0.75 31V15C0.75 7.12994 7.12994 0.75 15 0.75Z"
            fill="url(#paint0_linear_107_2909)"
            fill-opacity="0.05"
          />
          <path
            d="M15 0.75H154C161.87 0.75 168.25 7.12994 168.25 15V31C168.25 38.8701 161.87 45.25 154 45.25H15C7.12994 45.25 0.75 38.8701 0.75 31V15C0.75 7.12994 7.12994 0.75 15 0.75Z"
            stroke="url(#paint1_linear_107_2909)"
            stroke-width="1.5"
          />  
          <defs>
            <linearGradient
              id="paint0_linear_107_2909"
              x1="169"
              y1="23.6969"
              x2="-2.01464e-05"
              y2="23.6969"
              gradientUnits="userSpaceOnUse">
              <stop offset="0.046883" stop-color="#EEEEEE" />
              <stop offset="1" stop-color="white" />
            </linearGradient>
            <linearGradient
              id="paint1_linear_107_2909"
              x1="12.0315"
              y1="-6.56189e-06"
              x2="114.967"
              y2="93.889"
              gradientUnits="userSpaceOnUse">
              <stop stop-color="#515150" />
              <stop offset="0.465842" stop-color="white" />
              <stop offset="1" stop-color="#515150" />
            </linearGradient>
          </defs>
        </svg>